<svg xmlns="http://www.w3.org/2000/svg" xmlns:xlink="http://www.w3.org/1999/xlink" viewBox="0,0,256,256" width="500px" height="500px" fill-rule="nonzero"><g fill="none" fill-rule="nonzero" stroke="none" stroke-width="none" stroke-linecap="none" stroke-linejoin="none" stroke-miterlimit="10" stroke-dasharray="" stroke-dashoffset="0" font-family="none" font-weight="none" font-size="none" text-anchor="none" style="mix-blend-mode: normal"><g transform="scale(2.56,2.56)"><path d="M21.5,93c-7.995,0 -14.5,-6.505 -14.5,-14.5v-46c0,-7.995 6.505,-14.5 14.5,-14.5h6.5c0,-8.822 7.178,-16 16,-16c8.822,0 16,7.178 16,16h7.5c7.995,0 14.5,6.505 14.5,14.5v6.5c8.822,0 16,7.178 16,16c0,8.822 -7.178,16 -16,16v7.5c0,7.995 -6.505,14.5 -14.5,14.5z" fill="#fcc419" stroke="none" stroke-width="1" stroke-linecap="butt" stroke-linejoin="miter" opacity="0.35"></path><path d="M19.5,91c-7.995,0 -14.5,-6.505 -14.5,-14.5v-46c0,-7.995 6.505,-14.5 14.5,-14.5h6.5c0,-8.822 7.178,-16 16,-16c8.822,0 16,7.178 16,16h7.5c7.995,0 14.5,6.505 14.5,14.5v6.5c8.822,0 16,7.178 16,16c0,8.822 -7.178,16 -16,16v7.5c0,7.995 -6.505,14.5 -14.5,14.5z" fill="#f2f2f2" stroke="none" stroke-width="1" stroke-linecap="butt" stroke-linejoin="miter"></path><path d="M80,43.5c-2.518,0 -4.8,0.986 -6.5,2.585v-15.585c0,-4.418 -3.582,-8 -8,-8h-16.585c1.599,-1.7 2.585,-3.982 2.585,-6.5c0,-5.247 -4.253,-9.5 -9.5,-9.5c-5.247,0 -9.5,4.253 -9.5,9.5c0,2.518 0.986,4.8 2.585,6.5h-15.585c-4.418,0 -8,3.582 -8,8v15.585c1.7,-1.599 3.982,-2.585 6.5,-2.585c5.247,0 9.5,4.253 9.5,9.5c0,5.247 -4.253,9.5 -9.5,9.5c-2.518,0 -4.8,-0.986 -6.5,-2.585v16.585c0,4.418 3.582,8 8,8h15.585c-1.599,-1.7 -2.585,-3.982 -2.585,-6.5c0,-5.247 4.253,-9.5 9.5,-9.5c5.247,0 9.5,4.253 9.5,9.5c0,2.518 -0.986,4.8 -2.585,6.5h16.585c4.418,0 8,-3.582 8,-8v-16.585c1.7,1.599 3.982,2.585 6.5,2.585c5.247,0 9.5,-4.253 9.5,-9.5c0,-5.247 -4.253,-9.5 -9.5,-9.5z" fill="#fcc419" stroke="none" stroke-width="1" stroke-linecap="butt" stroke-linejoin="miter"></path><path d="M80,43.5c-2.518,0 -4.8,0.986 -6.5,2.585v-15.585c0,-4.418 -3.582,-8 -8,-8h-16.585c1.599,-1.7 2.585,-3.982 2.585,-6.5c0,-5.247 -4.253,-9.5 -9.5,-9.5c-5.247,0 -9.5,4.253 -9.5,9.5c0,2.518 0.986,4.8 2.585,6.5h-15.585c-4.418,0 -8,3.582 -8,8v15.585c1.7,-1.599 3.982,-2.585 6.5,-2.585c5.247,0 9.5,4.253 9.5,9.5c0,5.247 -4.253,9.5 -9.5,9.5c-2.518,0 -4.8,-0.986 -6.5,-2.585v16.585c0,4.418 3.582,8 8,8h15.585c-1.599,-1.7 -2.585,-3.982 -2.585,-6.5c0,-5.247 4.253,-9.5 9.5,-9.5c5.247,0 9.5,4.253 9.5,9.5c0,2.518 -0.986,4.8 -2.585,6.5h16.585c4.418,0 8,-3.582 8,-8v-16.585c1.7,1.599 3.982,2.585 6.5,2.585c5.247,0 9.5,-4.253 9.5,-9.5c0,-5.247 -4.253,-9.5 -9.5,-9.5z" fill="none" stroke="#40396e" stroke-width="3" stroke-linecap="round" stroke-linejoin="round"></path></g></g></svg>